<?xml version="1.0" encoding="UTF-8"?>
<svg width="60px" height="60px" viewBox="0 0 60 60" version="1.1" xmlns="http://www.w3.org/2000/svg" xmlns:xlink="http://www.w3.org/1999/xlink">
    <title>DTH</title>
    <defs>
        <linearGradient x1="13.6490827%" y1="17.8097688%" x2="90.1004569%" y2="80.0469613%" id="linearGradient-1">
            <stop stop-color="#F6C266" offset="0%"></stop>
            <stop stop-color="#B47C36" offset="100%"></stop>
        </linearGradient>
        <radialGradient cx="13.405097%" cy="14.8610673%" fx="13.405097%" fy="14.8610673%" r="48.6951121%" id="radialGradient-2">
            <stop stop-color="#FFE9B8" stop-opacity="0.521880463" offset="0%"></stop>
            <stop stop-color="#FFFFFF" stop-opacity="0" offset="100%"></stop>
        </radialGradient>
        <circle id="path-3" cx="30" cy="30" r="30"></circle>
        <linearGradient x1="19.9465972%" y1="13.4214474%" x2="86.0472201%" y2="86.365572%" id="linearGradient-4">
            <stop stop-color="#FFFFFF" offset="0%"></stop>
            <stop stop-color="#F5B862" offset="100%"></stop>
        </linearGradient>
    </defs>
    <g id="PC" stroke="none" stroke-width="1" fill="none" fill-rule="evenodd">
        <g id="个人中心-钱包(英雄)" transform="translate(-135.000000, -187.000000)">
            <g id="DTH" transform="translate(135.000000, 187.000000)">
                <g id="编组-28">
                    <g id="椭圆形">
                        <use fill="url(#linearGradient-1)" xlink:href="#path-3"></use>
                        <use fill="url(#radialGradient-2)" xlink:href="#path-3"></use>
                    </g>
                    <g id="编组-29" transform="translate(6.075949, 6.455696)">
                        <path d="M23.6079221,0 C30.3015747,0 36.3445772,2.78578404 40.6407961,7.26121083 C36.3974214,3.17913269 30.6305846,0.669733043 24.2776503,0.669733043 C11.239355,0.669733043 0.669728285,11.2394349 0.669728285,24.2778228 C0.669728285,30.6268211 3.17596601,36.3904519 7.25307821,40.6333456 C2.78205169,36.3367789 0,30.2973281 0,23.6080898 C0,10.5697018 10.5696267,0 23.6079221,0 Z" id="形状结合" fill-opacity="0.6" fill="#C09555" style="mix-blend-mode: multiply;"></path>
                        <path d="M40.2121151,6.83352316 C44.6846233,11.129305 47.4683544,17.170216 47.4683544,23.8613023 C47.4683544,36.8991172 36.8991172,47.4683544 23.8613023,47.4683544 C17.170216,47.4683544 11.129305,44.6846233 6.83352316,40.2121151 C11.0761511,44.2910481 16.8410339,46.7986508 23.1915987,46.7986508 C36.2294136,46.7986508 46.7986508,36.2294136 46.7986508,23.1915987 C46.7986508,16.9334475 44.3634986,11.2440566 40.3890622,7.0192942 Z" id="形状结合" fill-opacity="0.3" fill="#FFFFFF" style="mix-blend-mode: soft-light;"></path>
                    </g>
                </g>
                <path d="M31.6622875,44.0506329 L18.7243854,44.0506329 L17.5,43.2911392 L20.4124621,42.1749018 L20.4124621,34.1085549 L17.8275452,31.8540036 L17.5,30.434326 L20.4124621,29.0487613 L20.4124621,20.3771717 L18.2504242,18.6947694 L17.5,17.0886076 L31.6622875,17.0886076 C33.2803726,17.1123096 34.6268084,18.061419 35.7015949,18.4169486 C37.5322751,19.021349 39.0145356,20.1294162 40.1483762,21.7411504 C41.0578109,23.0447589 42.1846963,24.5721375 42.5153998,26.0890638 C42.562218,26.303817 42.605722,26.5171451 42.645912,26.729048 C42.6705442,26.8589217 42.7522757,27.3045339 42.8911066,28.0658849 L44.4620253,29.7823443 L44.4620253,30.9289718 L42.645912,32.811185 C42.5777013,33.4277602 42.5341972,33.7952072 42.5153998,33.9135263 C42.1966391,35.9199479 41.5501023,37.5615216 40.649952,39.1230032 C38.7602176,42.3820246 35.6071081,44.0506329 31.6622875,44.0506329 Z M36.1074647,24.2043212 C35.2485084,22.7516514 33.5487429,22.0253165 31.008168,22.0253165 L26.1617935,22.0253165 L26.1617935,28.8113446 L28.2244724,30.1898734 L28.2244724,31.4134863 L26.1617935,32.9929569 L26.1617935,39.4936709 L31.008168,39.4936709 C33.6455267,39.4936709 35.4844189,38.1923209 36.5248448,35.5896208 C36.7112509,35.1213283 36.9221117,34.3530254 37.1574272,33.284712 L34.1668951,30.7594937 L34.1668951,29.7276244 L37.2412161,28.0111649 C37.2026101,27.7159293 37.1716596,27.4974699 37.1483644,27.355787 C36.9414203,26.0971343 36.5944537,25.0466457 36.1074647,24.2043212 Z" id="形状备份" fill-opacity="0.6" fill="#C09555" style="mix-blend-mode: multiply;"></path>
                <path d="M31.2825407,43.2911392 L17.5,43.2911392 L20.0327153,41.4154081 L20.0327153,32.7413685 L17.5,30.434326 L20.0327153,28.2892676 L20.0327153,19.1731393 L17.5,17.0886076 L31.2825407,17.0886076 C32.9006258,17.1123096 34.2470616,17.3019254 35.321848,17.657455 C37.1525283,18.2618553 38.6347887,19.3699225 39.7686294,20.9816567 C40.6780641,22.2852653 41.2981332,23.6955327 41.6288367,25.212459 C41.6756548,25.4272122 41.7191589,25.6405402 41.7593489,25.8524432 C41.7839811,25.9823168 41.8657126,26.4096891 42.0045435,27.1345601 L44.4620253,29.7823443 L41.9494474,32.2334632 C41.9104397,32.6600035 41.8815371,32.9324332 41.8627398,33.0507523 C41.543979,35.0571739 40.9345236,36.8411256 40.0343733,38.4026072 C38.1446389,41.6616286 35.2273613,43.2911392 31.2825407,43.2911392 Z M35.7277179,23.4448275 C34.8687616,21.9921577 33.168996,21.2658228 30.6284211,21.2658228 L25.4746835,21.2658228 L25.4746835,28.0518509 L28.2471365,30.2235252 L25.4746835,32.4223853 L25.4746835,38.7341772 L30.6284211,38.7341772 C33.2657798,38.7341772 35.1046721,37.4328272 36.145098,34.8301271 C36.4247071,34.1276884 36.6355679,33.3593855 36.7776804,32.5252183 C36.80012,32.3935031 36.8299227,32.1922355 36.8670886,31.9214154 L34.1668951,29.7276244 L36.8614693,27.2516713 C36.8228633,26.9564356 36.7919127,26.7379763 36.7686176,26.5962933 C36.5616734,25.3376406 36.2147069,24.287152 35.7277179,23.4448275 Z" id="形状" fill="url(#linearGradient-4)"></path>
            </g>
        </g>
    </g>
</svg>